<svg width="1000" height="1000" xmlns="http://www.w3.org/2000/svg">
 <metadata>Svg Vector Icons : http://www.onlinewebfonts.com/icon</metadata>

 <g>
  <title>background</title>
  <rect fill="none" id="canvas_background" height="402" width="582" y="-1" x="-1"/>
 </g>
 <g>
  <title>Layer 1</title>
  <g id="svg_1">
   <path fill="#f66" id="svg_2" d="m570.6,766c-57.8,30.1 -89.7,29.8 -135.4,8c-45.4,-21.8 -425.2,-180.5 -425.2,-180.5l0,0l0,115c0,9.9 13.8,20.3 39.6,32.7c51.9,24.9 340.2,141.1 385.5,163c45.4,21.8 77.5,21.9 135.4,-8c57.8,-30.1 328.4,-141.2 380.7,-168.7l0,0c26.6,-13.8 38.3,-24.7 38.3,-34.4c0,-9.2 0,-113.6 0,-113.6l-0.1,0c-0.1,0.1 -361.3,156.3 -418.8,186.5z"/>
   <path fill="#f66" id="svg_3" d="m570.6,604.4c-57.8,30.1 -89.7,29.8 -135.4,8c-45.4,-21.9 -425.2,-180.7 -425.2,-180.7l0,0l0,115c0,9.9 13.8,20.3 39.6,32.7c51.9,25 340.2,141.2 385.5,163.2c45.4,21.8 77.5,21.9 135.4,-8c57.8,-30.1 328.4,-141.2 380.7,-168.7c26.6,-13.8 38.3,-24.7 38.3,-34.4c0,-9.2 0,-113.6 0,-113.6l-0.1,0c-0.1,0.1 -361.3,156.3 -418.8,186.5z"/>
   <path fill="#f66" id="svg_4" d="m989.6,266.6c0.5,-9.9 -12.7,-18.7 -38.8,-28.3c-51,-18.7 -320.1,-125.8 -371.7,-144.7c-51.7,-18.9 -72.6,-18 -133.2,3.6c-60.4,21.5 -347.1,134.1 -398,154.1c-25.7,10 -38.2,19.5 -37.5,29.5l0,-0.1l0,113.2c0,0 379.5,159.9 425.2,181.7c45.4,21.8 77.5,21.9 135.4,-8c57.6,-30.4 419,-189.2 419,-189.2l-0.4,-111.8l0,0l0,0zm-126.8,3l-148.8,58.7l-134.1,-53l148.6,-58.8l134.3,53.1zm-274.8,55.8l-68.7,100.6l-158.3,-65.7l227,-34.9zm-119.2,-152.9l-21.9,-40.5l68.5,26.7l64.4,-21.2l-17.5,41.8l65.7,24.7l-84.9,8.7l-19.1,45.9l-30.6,-51.1l-98,-8.7l73.4,-26.3zm-169.1,57c67,0 121.4,20.9 121.4,47c0,25.8 -54.4,47 -121.4,47s-121.4,-20.9 -121.4,-47c0.1,-25.7 54.4,-47 121.4,-47z"/>
  </g>
 </g>
</svg>